<mxfile host="app.diagrams.net" modified="2024-03-25T12:38:48.202Z" agent="Mozilla/5.0 (Windows NT 10.0; Win64; x64) AppleWebKit/537.36 (KHTML, like Gecko) Chrome/122.0.0.0 Safari/537.36" version="24.1.0" etag="dVg9PHFq39bzErfzT8QT" type="github">
  <diagram name="Page-1" id="sqtsDTYgiRFUH-7-a7w6">
    <mxGraphModel>
      <root>
        <mxCell id="0" />
        <mxCell id="1" parent="0" />
      </root>
    </mxGraphModel>
  </diagram>
</mxfile>
